# xmcd CD database file
#
# Track frame offsets:
#	150
#	14390
#	32252
#	47612
#	65725
#
# Disc length: 1164 seconds
#
# Revision: 2
# Processed by: cddbd v1.5.1PL2 Copyright (c) Steve Scherf et al.
# Submitted via: CDex 1.51
#
DISCID=36048a05
DTITLE=ニーネ - うつむきDXOK
DYEAR=2001
DGENRE=Rock
TTITLE0=今度会う時は
TTITLE1=空を見ていると...(Futures)
TTITLE2=やりたいぜ
TTITLE3=四倍ブルー
TTITLE4=恋しくて
EXTD=YEAR: 2001
EXTT0=
EXTT1=
EXTT2=
EXTT3=
EXTT4=
PLAYORDER=
